<?xml version="1.0" standalone="no"?>
<!DOCTYPE svg PUBLIC "-//W3C//DTD SVG 20010904//EN"
 "http://www.w3.org/TR/2001/REC-SVG-20010904/DTD/svg10.dtd">
<svg version="1.0" xmlns="http://www.w3.org/2000/svg"
 width="100.000000pt" height="100.000000pt" viewBox="0 0 100.000000 100.000000"
 preserveAspectRatio="xMidYMid meet">

<g transform="translate(0.000000,100.000000) scale(0.100000,-0.100000)"
fill="#000000" stroke="none">
<path d="M16 870 c7 -95 23 -189 39 -240 8 -25 17 -89 19 -144 3 -78 11 -116
36 -187 18 -49 36 -89 40 -89 4 0 15 11 24 25 35 53 108 18 154 -75 35 -69 37
-67 51 41 l6 52 48 -52 49 -52 -7 78 c-4 43 -13 106 -21 141 -8 35 -14 65 -14
68 0 3 11 -8 25 -23 l25 -28 30 33 c32 35 37 66 18 118 -10 29 -8 37 20 81 18
28 32 53 32 56 0 14 -28 7 -53 -13 -32 -25 -52 -25 -84 0 -25 19 -53 27 -53
14 0 -4 14 -31 30 -60 30 -51 30 -54 15 -83 -8 -17 -15 -44 -15 -61 0 -16 -4
-30 -10 -30 -5 0 -10 -8 -11 -17 0 -10 -10 2 -22 26 -16 33 -19 45 -9 48 44
16 -56 157 -125 177 -68 19 -68 17 -13 -36 31 -29 47 -46 35 -37 -11 8 -44 30
-72 48 -64 40 -120 100 -103 111 16 10 -18 63 -36 56 -9 -3 -17 9 -24 37 -20
79 -29 85 -24 17z m290 -505 l49 -47 -63 48 c-65 49 -89 74 -55 55 11 -5 42
-31 69 -56z"/>
<path d="M955 860 c-8 -32 -15 -44 -27 -42 -8 1 -23 -10 -33 -24 -14 -22 -15
-28 -4 -35 10 -6 2 -19 -32 -51 -25 -24 -61 -52 -80 -62 l-34 -19 30 33 c32
34 33 34 -35 14 -75 -21 -177 -160 -130 -176 7 -2 3 -22 -10 -51 -21 -47 -33
-61 -28 -31 2 10 -2 19 -9 21 -7 3 -17 -23 -27 -69 -14 -67 -35 -218 -30 -218
2 0 25 24 53 52 l51 53 0 -45 c0 -25 3 -62 7 -84 l6 -38 31 63 c49 101 124
138 164 82 11 -16 23 -25 26 -22 4 3 20 45 36 92 23 65 31 108 34 184 2 54 11
116 19 139 21 57 39 180 35 234 l-3 45 -10 -45z m-211 -458 c-12 -9 -41 -32
-65 -50 -38 -29 -37 -27 10 17 30 28 60 51 65 51 6 0 1 -8 -10 -18z"/>
<path d="M466 703 c-36 -19 -21 -37 30 -36 51 1 63 18 28 36 -26 13 -33 13
-58 0z"/>
</g>
</svg>
